<svg width="216" height="131" viewBox="0 0 216 131" fill="none" xmlns="http://www.w3.org/2000/svg">
<path d="M14.1786 108.84C14.1786 106.52 14.6453 104.493 15.5786 102.76C16.5386 101.027 17.8586 99.6933 19.5386 98.76C21.2453 97.8267 23.1919 97.36 25.3786 97.36C28.1786 97.36 30.5119 98.0933 32.3786 99.56C34.2719 101.027 35.5119 103.093 36.0986 105.76H28.8186C28.2053 104.053 27.0186 103.2 25.2586 103.2C24.0053 103.2 23.0053 103.693 22.2586 104.68C21.5119 105.64 21.1386 107.027 21.1386 108.84C21.1386 110.653 21.5119 112.053 22.2586 113.04C23.0053 114 24.0053 114.48 25.2586 114.48C27.0186 114.48 28.2053 113.627 28.8186 111.92H36.0986C35.5119 114.533 34.2719 116.587 32.3786 118.08C30.4853 119.573 28.1519 120.32 25.3786 120.32C23.1919 120.32 21.2453 119.853 19.5386 118.92C17.8586 117.987 16.5386 116.653 15.5786 114.92C14.6453 113.187 14.1786 111.16 14.1786 108.84ZM49.9173 120.32C47.7307 120.32 45.7573 119.853 43.9973 118.92C42.264 117.987 40.8907 116.653 39.8773 114.92C38.8907 113.187 38.3973 111.16 38.3973 108.84C38.3973 106.547 38.904 104.533 39.9173 102.8C40.9307 101.04 42.3173 99.6933 44.0773 98.76C45.8373 97.8267 47.8107 97.36 49.9973 97.36C52.184 97.36 54.1573 97.8267 55.9173 98.76C57.6773 99.6933 59.064 101.04 60.0773 102.8C61.0907 104.533 61.5973 106.547 61.5973 108.84C61.5973 111.133 61.0773 113.16 60.0373 114.92C59.024 116.653 57.624 117.987 55.8373 118.92C54.0773 119.853 52.104 120.32 49.9173 120.32ZM49.9173 114.4C51.224 114.4 52.3307 113.92 53.2373 112.96C54.1707 112 54.6373 110.627 54.6373 108.84C54.6373 107.053 54.184 105.68 53.2773 104.72C52.3973 103.76 51.304 103.28 49.9973 103.28C48.664 103.28 47.5573 103.76 46.6773 104.72C45.7973 105.653 45.3573 107.027 45.3573 108.84C45.3573 110.627 45.784 112 46.6373 112.96C47.5173 113.92 48.6107 114.4 49.9173 114.4ZM72.0661 90.4V120H65.2261V90.4H72.0661ZM83.863 90.4V120H77.023V90.4H83.863ZM109.86 108.48C109.86 109.12 109.82 109.787 109.74 110.48H94.2598C94.3665 111.867 94.8065 112.933 95.5798 113.68C96.3798 114.4 97.3532 114.76 98.4998 114.76C100.207 114.76 101.393 114.04 102.06 112.6H109.34C108.967 114.067 108.287 115.387 107.3 116.56C106.34 117.733 105.127 118.653 103.66 119.32C102.193 119.987 100.553 120.32 98.7398 120.32C96.5532 120.32 94.6065 119.853 92.8998 118.92C91.1932 117.987 89.8598 116.653 88.8998 114.92C87.9398 113.187 87.4598 111.16 87.4598 108.84C87.4598 106.52 87.9265 104.493 88.8598 102.76C89.8198 101.027 91.1532 99.6933 92.8598 98.76C94.5665 97.8267 96.5265 97.36 98.7398 97.36C100.9 97.36 102.82 97.8133 104.5 98.72C106.18 99.6267 107.487 100.92 108.42 102.6C109.38 104.28 109.86 106.24 109.86 108.48ZM102.86 106.68C102.86 105.507 102.46 104.573 101.66 103.88C100.86 103.187 99.8598 102.84 98.6598 102.84C97.5132 102.84 96.5398 103.173 95.7398 103.84C94.9665 104.507 94.4865 105.453 94.2998 106.68H102.86ZM112.108 108.84C112.108 106.52 112.575 104.493 113.508 102.76C114.468 101.027 115.788 99.6933 117.468 98.76C119.175 97.8267 121.122 97.36 123.308 97.36C126.108 97.36 128.442 98.0933 130.308 99.56C132.202 101.027 133.442 103.093 134.028 105.76H126.748C126.135 104.053 124.948 103.2 123.188 103.2C121.935 103.2 120.935 103.693 120.188 104.68C119.442 105.64 119.068 107.027 119.068 108.84C119.068 110.653 119.442 112.053 120.188 113.04C120.935 114 121.935 114.48 123.188 114.48C124.948 114.48 126.135 113.627 126.748 111.92H134.028C133.442 114.533 132.202 116.587 130.308 118.08C128.415 119.573 126.082 120.32 123.308 120.32C121.122 120.32 119.175 119.853 117.468 118.92C115.788 117.987 114.468 116.653 113.508 114.92C112.575 113.187 112.108 111.16 112.108 108.84ZM150.127 114.2V120H146.647C144.167 120 142.234 119.4 140.847 118.2C139.46 116.973 138.767 114.987 138.767 112.24V103.36H136.047V97.68H138.767V92.24H145.607V97.68H150.087V103.36H145.607V112.32C145.607 112.987 145.767 113.467 146.087 113.76C146.407 114.053 146.94 114.2 147.687 114.2H150.127ZM157.377 95.36C156.177 95.36 155.19 95.0133 154.417 94.32C153.67 93.6 153.297 92.72 153.297 91.68C153.297 90.6133 153.67 89.7333 154.417 89.04C155.19 88.32 156.177 87.96 157.377 87.96C158.55 87.96 159.51 88.32 160.257 89.04C161.03 89.7333 161.417 90.6133 161.417 91.68C161.417 92.72 161.03 93.6 160.257 94.32C159.51 95.0133 158.55 95.36 157.377 95.36ZM160.777 97.68V120H153.937V97.68H160.777ZM176.934 103.36H173.254V120H166.414V103.36H163.934V97.68H166.414V97.04C166.414 94.2933 167.201 92.2133 168.774 90.8C170.347 89.36 172.654 88.64 175.694 88.64C176.201 88.64 176.574 88.6533 176.814 88.68V94.48C175.507 94.4 174.587 94.5867 174.054 95.04C173.521 95.4933 173.254 96.3067 173.254 97.48V97.68H176.934V103.36ZM202.948 97.68L188.948 130.6H181.588L186.708 119.24L177.628 97.68H185.268L190.428 111.64L195.548 97.68H202.948Z" fill="#4E6598"/>
<path d="M104.562 3.02083L103.591 1.27266L103.59 1.27272L104.562 3.02083ZM108.5 2V0V2ZM112.438 3.02083L113.41 1.27272L113.409 1.27266L112.438 3.02083ZM142.915 19.9612L143.888 18.2136L143.887 18.2131L142.915 19.9612ZM145 23.5083L143 23.5083V23.5083H145ZM145 56.9304L147 56.9309V56.9304H145ZM140.827 64.0247L139.855 62.2766L139.855 62.2768L140.827 64.0247ZM112.438 79.8124L113.409 81.5606L113.41 81.5603L112.438 79.8124ZM104.562 79.8124L103.59 81.5603L103.591 81.5606L104.562 79.8124ZM76.1732 64.0247L77.1452 62.2768L77.1447 62.2766L76.1732 64.0247ZM72 56.9345L70 56.9345L70 56.9359L72 56.9345ZM72 23.5083L74 23.5083L74 23.5083L72 23.5083ZM74.0846 19.9612L73.1129 18.2131L73.112 18.2136L74.0846 19.9612ZM91.2218 9.22756C90.2564 8.69083 89.0387 9.03834 88.502 10.0037C87.9653 10.9691 88.3128 12.1869 89.2782 12.7236L91.2218 9.22756ZM126.75 31.2683H128.75C128.75 30.5422 128.356 29.8731 127.722 29.5203L126.75 31.2683ZM124.75 45.4731C124.75 46.5777 125.645 47.4731 126.75 47.4731C127.855 47.4731 128.75 46.5777 128.75 45.4731H124.75ZM85.1409 40.9991C84.1762 40.4611 82.958 40.8069 82.42 41.7716C81.8819 42.7363 82.2278 43.9545 83.1925 44.4925L85.1409 40.9991ZM95.3591 51.2784C96.3238 51.8164 97.542 51.4706 98.08 50.5059C98.6181 49.5412 98.2722 48.323 97.3075 47.785L95.3591 51.2784ZM105.534 4.769C106.441 4.26462 107.462 4 108.5 4V0C106.782 0 105.092 0.438028 103.591 1.27266L105.534 4.769ZM108.5 4C109.538 4 110.559 4.26462 111.466 4.769L113.409 1.27266C111.908 0.438028 110.218 0 108.5 0V4ZM111.466 4.76894L141.944 21.7093L143.887 18.2131L113.41 1.27272L111.466 4.76894ZM141.943 21.7088C142.263 21.887 142.53 22.1477 142.716 22.4641L146.165 20.4374C145.617 19.5065 144.832 18.7386 143.888 18.2136L141.943 21.7088ZM142.716 22.4641C142.902 22.7805 143 23.141 143 23.5083L147 23.5084C147 22.4286 146.712 21.3684 146.165 20.4374L142.716 22.4641ZM143 23.5083V56.9304H147V23.5083H143ZM143 56.9299C143 58.021 142.708 59.0921 142.155 60.0322L145.603 62.0603C146.517 60.5057 147 58.7347 147 56.9309L143 56.9299ZM142.155 60.0322C141.602 60.9723 140.808 61.7471 139.855 62.2766L141.798 65.7729C143.375 64.8968 144.688 63.615 145.603 62.0603L142.155 60.0322ZM139.855 62.2768L111.466 78.0646L113.41 81.5603L141.799 65.7726L139.855 62.2768ZM111.466 78.0643C110.559 78.5687 109.538 78.8333 108.5 78.8333V82.8333C110.218 82.8333 111.908 82.3953 113.409 81.5606L111.466 78.0643ZM108.5 78.8333C107.462 78.8333 106.441 78.5687 105.534 78.0643L103.591 81.5606C105.092 82.3953 106.782 82.8333 108.5 82.8333V78.8333ZM105.534 78.0646L77.1452 62.2768L75.2011 65.7726L103.59 81.5603L105.534 78.0646ZM77.1447 62.2766C76.1925 61.7474 75.3988 60.9731 74.8458 60.0336L71.3986 62.0625C72.3131 63.6162 73.626 64.8973 75.2016 65.7729L77.1447 62.2766ZM74.8458 60.0336C74.2929 59.094 74.0008 58.0236 74 56.933L70 56.9359C70.0013 58.7389 70.4842 60.5088 71.3986 62.0625L74.8458 60.0336ZM74 56.9345V23.5083H70V56.9345H74ZM74 23.5083C74 23.141 74.0981 22.7805 74.284 22.4641L70.8354 20.4374C70.2884 21.3684 70 22.4286 70 23.5084L74 23.5083ZM74.284 22.4641C74.47 22.1477 74.7369 21.887 75.0571 21.7088L73.112 18.2136C72.1685 18.7386 71.3825 19.5065 70.8354 20.4374L74.284 22.4641ZM75.0562 21.7093L105.534 4.76894L103.59 1.27272L73.1129 18.2131L75.0562 21.7093ZM89.2782 12.7236L125.778 33.0163L127.722 29.5203L91.2218 9.22756L89.2782 12.7236ZM124.75 31.2683V45.4731H128.75V31.2683H124.75ZM83.1925 44.4925L95.3591 51.2784L97.3075 47.785L85.1409 40.9991L83.1925 44.4925ZM71.0282 22.8699L107.528 43.1626L109.472 39.6666L72.9718 19.3739L71.0282 22.8699ZM109.472 43.1626L145.972 22.8699L144.028 19.3739L107.528 39.6666L109.472 43.1626ZM106.5 41.4146V82H110.5V41.4146H106.5Z" fill="#4E6598"/>
</svg>
